<svg xmlns="http://www.w3.org/2000/svg" fill="none" viewBox="0 0 24 24" id="Lumen--Streamline-Svg-Logos" height="24" width="24">
  <desc>
    Lumen Streamline Icon: https://streamlinehq.com
  </desc>
  <path fill="#e54537" d="M6.844025 6.76975c0.097375 0 0.1963 -0.020675 0.29035 -0.064425L17.447325 1.9101525c0.345425 -0.1606375 0.49525 -0.5708425 0.3346 -0.916235 -0.16055 -0.3453925 -0.570875 -0.495205 -0.9162 -0.3346125L6.5528 5.4545c-0.34545 0.1606 -0.49525 0.5708 -0.334625 0.9162 0.11685 0.2513 0.365825 0.39905 0.62585 0.39905ZM16.86575 3.590625 6.5528 8.385825c-0.345425 0.1606 -0.49525 0.57075 -0.3346 0.91615 0.116775 0.25135 0.36575 0.3991 0.625825 0.3991 0.097375 0 0.196275 -0.020675 0.29035 -0.064475l10.31295 -4.795125c0.34545 -0.16065 0.49525 -0.57085 0.334625 -0.916225 -0.16055 -0.3454 -0.5709 -0.495225 -0.9162 -0.334625Zm0 2.95595L6.5528 11.341775c-0.345425 0.1606 -0.49525 0.57075 -0.3346 0.91615 0.116775 0.25135 0.36575 0.3991 0.625825 0.3991 0.097375 0 0.196275 -0.0207 0.29035 -0.0645l10.31295 -4.7951c0.34545 -0.16065 0.49525 -0.57085 0.334625 -0.91625 -0.16055 -0.345375 -0.5709 -0.4952 -0.9162 -0.3346ZM6.844025 3.846675c0.0976 0 0.19675 -0.020825 0.291075 -0.064775L11.88925 1.5649475c0.34525 -0.1609575 0.494575 -0.571345 0.3336 -0.9166 -0.16105 -0.345255 -0.571425 -0.494475 -0.91665 -0.3336075L6.552075 2.5317c-0.345225 0.161 -0.494575 0.5714 -0.333625 0.9166 0.117075 0.250975 0.365825 0.398375 0.625575 0.398375Zm10.019075 5.632425 -3.64565 1.7138c-0.24185 0.113675 -0.396275 0.35695 -0.396275 0.624175v3.4427h-1.59295V12.68975c0 -0.380975 -0.308775 -0.68975 -0.6897 -0.68975 -0.380975 0 -0.689725 0.308775 -0.689725 0.68975v2.570025h-0.9885c-0.2935 0 -0.515525 0.26555 -0.4635 0.55445l0.232675 1.29145c0.040375 0.2243 0.235575 0.38745 0.4635 0.38745h2.419925l-2.56325 0.465425c-0.1874 0.033975 -0.311725 0.213525 -0.2777 0.4009 0.030275 0.166525 0.175425 0.28335 0.33895 0.28335 0.02045 0 0.0412 -0.001825 0.062025 -0.00565l5.879025 -1.067525c0.091525 -0.016575 0.167575 -0.068225 0.21795 -0.13825 0.121775 -0.06905 0.211025 -0.1906 0.233625 -0.3373l0.199475 -1.2915c0.044025 -0.285325 -0.176725 -0.5428 -0.465475 -0.5428h-0.936925v-3.00475l3.249375 -1.52755c0.344725 -0.16205 0.4928 -0.5729 0.33075 -0.9176 -0.162025 -0.344575 -0.572725 -0.49285 -0.917625 -0.330775Zm-2.034375 9.1692 -5.879025 1.06735c-0.18745 0.034 -0.311775 0.21355 -0.27775 0.4009 0.03025 0.166575 0.1754 0.283375 0.33895 0.283375 0.020375 0 0.04115 -0.00185 0.06195 -0.005675l5.87905 -1.067425c0.187425 -0.033925 0.31175 -0.213475 0.277725 -0.400825 -0.03405 -0.187375 -0.21335 -0.312325 -0.4009 -0.2777Zm0 1.822825L8.9497 21.5385c-0.18745 0.033975 -0.311775 0.213525 -0.27775 0.400875 0.03025 0.166575 0.1754 0.283375 0.33895 0.283375 0.020375 0 0.04115 -0.001825 0.06195 -0.005675l5.87905 -1.0674c0.187425 -0.03395 0.31175 -0.2135 0.277725 -0.40085 -0.03405 -0.18735 -0.21335 -0.312325 -0.4009 -0.2777Zm-0.7031 1.838625L9.741 23.0652c-0.187675 0.0323 -0.31365 0.2107 -0.281325 0.398425 0.028925 0.1678 0.174675 0.286375 0.339475 0.286375 0.01945 0 0.039125 -0.001725 0.0589 -0.005125l4.3847 -0.7554c0.187675 -0.03235 0.31365 -0.21075 0.2813 -0.398475 -0.0323 -0.18755 -0.210325 -0.312925 -0.398425 -0.28125Z" stroke-width="0.25"></path>
</svg>